<?xml version="1.0" encoding="iso-8859-1"?>
<!-- Uploaded to: SVG Repo, www.svgrepo.com, Generator: SVG Repo Mixer Tools -->
<svg height="800px" width="800px" version="1.1" id="Layer_1" xmlns="http://www.w3.org/2000/svg" xmlns:xlink="http://www.w3.org/1999/xlink" 
	 viewBox="0 0 512 512" xml:space="preserve">
<path style="fill:#688787;" d="M276.373,449.145v17.813h-40.745v-17.813c-67.799,2.224-119.871,15.371-119.871,31.261
	C115.757,497.855,178.546,512,256,512s140.243-14.145,140.243-31.594C396.243,464.516,344.171,451.369,276.373,449.145z"/>
<g style="opacity:0.15;">
	<path style="fill:#231F20;" d="M133.565,480.406c0-14.467,43.165-26.658,102.062-30.404v-0.857
		c-67.798,2.224-119.87,15.371-119.87,31.261C115.757,497.855,178.546,512,256,512c2.992,0,5.959-0.024,8.904-0.066
		C191.6,510.9,133.565,497.182,133.565,480.406z"/>
</g>
<path style="fill:#547475;" d="M235.627,350.782v62.783v53.65v4.333h0.732c1.801,5.247,6.766,9.023,12.624,9.023h14.032
	c5.858,0,10.823-3.777,12.624-9.023h0.732v-4.333v-53.65v-62.783H235.627z"/>
<path style="opacity:0.15;fill:#231F20;enable-background:new    ;" d="M254.169,471.55h-0.732v-4.333v-53.65v-62.783h-17.809
	v62.783v53.65v4.333h0.732c1.801,5.247,6.766,9.023,12.624,9.023h14.032c0.642,0,1.271-0.053,1.888-0.14
	C259.887,479.719,255.773,476.221,254.169,471.55z"/>
<path style="fill:#688787;" d="M498.643,0H13.357C5.979,0,0,5.98,0,13.357v346.557c0,7.377,5.979,13.357,13.357,13.357h48.87h27.267
	h409.149c7.377,0,13.357-5.979,13.357-13.357V13.357C512,5.98,506.021,0,498.643,0z"/>
<polygon style="fill:#53CAF9;" points="464.542,40.745 436.716,40.745 0,40.745 0,317.299 512,317.299 512,40.745 "/>
<path style="fill:#426060;" d="M270.438,353.566h-28.876c-4.61,0-8.348-3.736-8.348-8.348c0-4.611,3.738-8.348,8.348-8.348h28.876
	c4.61,0,8.348,3.736,8.348,8.348C278.786,349.83,275.048,353.566,270.438,353.566z"/>
<path style="opacity:0.15;fill:#231F20;enable-background:new    ;" d="M16.096,359.914V13.357C16.096,5.98,22.076,0,29.452,0
	H13.357C5.979,0,0,5.98,0,13.357v346.557c0,7.377,5.979,13.357,13.357,13.357h16.096C22.076,373.27,16.096,367.291,16.096,359.914z"
	/>
<g>
	<path style="fill:#AAE6F9;" d="M469.764,186.799h-197.03c-4.611,0-8.348-3.736-8.348-8.348s3.736-8.348,8.348-8.348h197.03
		c4.61,0,8.348,3.736,8.348,8.348C478.112,183.062,474.374,186.799,469.764,186.799z"/>
	<path style="fill:#AAE6F9;" d="M469.764,225.997h-197.03c-4.611,0-8.348-3.736-8.348-8.348s3.736-8.348,8.348-8.348h197.03
		c4.61,0,8.348,3.736,8.348,8.348C478.112,222.26,474.374,225.997,469.764,225.997z"/>
	<path style="fill:#AAE6F9;" d="M469.764,265.194h-197.03c-4.611,0-8.348-3.736-8.348-8.348c0-4.611,3.736-8.348,8.348-8.348h197.03
		c4.61,0,8.348,3.736,8.348,8.348C478.112,261.456,474.374,265.194,469.764,265.194z"/>
	<path style="fill:#AAE6F9;" d="M471.519,125.846c0,7.377-5.979,13.357-13.357,13.357H53.837c-7.376,0-13.357-5.979-13.357-13.357
		v-16.325c0-7.376,5.98-13.357,13.357-13.357h404.325c7.377,0,13.357,5.98,13.357,13.357V125.846z"/>
</g>
<path style="fill:#EFD760;" d="M235.634,243.489c0,7.376-5.979,13.357-13.357,13.357H53.837c-7.376,0-13.357-5.98-13.357-13.357
	v-51.682c0-7.377,5.98-13.357,13.357-13.357h168.44c7.377,0,13.357,5.979,13.357,13.357V243.489z"/>
</svg>